<?xml version="1.0" encoding="iso-8859-1"?>
<!-- Generator: Adobe Illustrator 30.1.0, SVG Export Plug-In . SVG Version: 9.03 Build 0)  -->
<svg version="1.1" id="Layer_1" xmlns="http://www.w3.org/2000/svg" xmlns:xlink="http://www.w3.org/1999/xlink" x="0px" y="0px"
	 viewBox="0 0 529 529" style="enable-background:new 0 0 529 529;" xml:space="preserve">
<path d="M204.863,31.587c29.787,24.824,47.34,60.108,50.943,98.692c3.046,42.689-8.404,79.866-36.146,112.47
	c-6.822,7.759-14.413,14.076-22.66,20.25c1.171,0.005,1.171,0.005,2.365,0.011c7.357,0.038,14.714,0.095,22.07,0.173
	c3.782,0.039,7.564,0.072,11.346,0.087c3.651,0.015,7.301,0.05,10.951,0.097c1.392,0.015,2.784,0.023,4.177,0.024
	c1.951,0.002,3.902,0.032,5.853,0.062c1.11,0.009,2.221,0.018,3.365,0.027c3.522,0.636,4.71,1.718,6.873,4.519
	c0.518,2.587,0.518,2.587,0.531,5.516c0.008,1.078,0.017,2.157,0.025,3.268c-0.019,1.144-0.037,2.288-0.057,3.467
	c-0.014,1.174-0.027,2.349-0.041,3.558c-0.554,23.414-9.926,43.017-25.928,59.778c-14.975,14.246-35.288,23.067-56.027,23.484
	c-1.239-0.035-1.239-0.035-2.504-0.07c0.33,0.66,0.66,1.32,1,2c0.27,1.758,0.492,3.524,0.69,5.292
	c0.128,1.123,0.255,2.246,0.387,3.402c0.137,1.238,0.273,2.476,0.414,3.751c0.146,1.299,0.293,2.599,0.444,3.937
	c0.402,3.572,0.8,7.145,1.196,10.718c0.332,2.987,0.665,5.973,0.999,8.959c0.788,7.054,1.573,14.109,2.355,21.165
	c0.805,7.26,1.616,14.519,2.432,21.778c0.701,6.241,1.397,12.482,2.089,18.724c0.413,3.724,0.828,7.447,1.247,11.17
	c0.395,3.51,0.785,7.02,1.17,10.532c0.208,1.887,0.422,3.772,0.637,5.658c2.001,18.411,2.001,18.411-0.392,24.061
	c-4.227,2.937-8.308,2.549-13.339,2.5c-1.087,0.009-2.173,0.018-3.293,0.027c-3.596,0.022-7.19,0.007-10.786-0.009
	c-2.496,0.003-4.992,0.008-7.487,0.015c-5.232,0.007-10.464-0.003-15.696-0.027c-6.046-0.027-12.092-0.018-18.139,0.009
	c-5.82,0.025-11.64,0.023-17.46,0.008c-2.475-0.003-4.95,0.001-7.426,0.012c-3.457,0.013-6.913-0.007-10.371-0.035
	c-1.027,0.01-2.053,0.02-3.111,0.031c-4.194-0.063-6.734-0.103-10.228-2.531c-3.551-8.384-0.971-18.971,0.028-27.757
	c0.147-1.328,0.293-2.657,0.438-3.985c0.393-3.572,0.794-7.144,1.196-10.715c0.421-3.748,0.836-7.496,1.252-11.244
	c0.698-6.282,1.4-12.563,2.106-18.844c0.816-7.264,1.625-14.529,2.43-21.794c0.776-7.001,1.556-14.001,2.339-21.001
	c0.333-2.976,0.664-5.953,0.994-8.929c0.46-4.144,0.926-8.288,1.393-12.432c0.137-1.238,0.273-2.476,0.414-3.751
	c0.128-1.123,0.255-2.246,0.387-3.402c0.11-0.979,0.219-1.959,0.332-2.968C91,369,91,369,92,367
	c-0.848-0.026-1.696-0.052-2.57-0.078C66.037,365.791,45.215,355.829,29,339c-14.205-16.463-21.135-36.633-21.312-58.125
	c-0.029-1.18-0.058-2.359-0.088-3.574c-0.008-1.133-0.017-2.266-0.025-3.434c-0.015-1.03-0.029-2.06-0.044-3.122
	c0.608-3.553,1.66-4.529,4.47-6.746c2.873-0.519,2.873-0.519,6.237-0.546c1.261-0.02,2.522-0.039,3.821-0.06
	c1.371-0.002,2.742-0.003,4.113-0.004c1.407-0.015,2.814-0.032,4.22-0.05c3.696-0.044,7.391-0.064,11.087-0.079
	c3.774-0.02,7.548-0.062,11.322-0.102C60.2,263.085,67.6,263.035,75,263c-0.758-0.62-1.516-1.24-2.297-1.878
	c-0.993-0.812-1.986-1.624-3.009-2.461c-0.985-0.805-1.97-1.611-2.985-2.441c-28-22.952-45.893-55.817-50.24-91.826
	C12.515,124.298,21.8,83.828,47,52c2.887-3.451,5.891-6.749,9-10c0.61-0.673,1.219-1.346,1.848-2.039
	C95.894-0.59,162.328-2.677,204.863,31.587z M63,61c-22.226,27.001-31.622,62.048-28.782,96.66
	C37.408,187.395,49.609,214.966,71,236c1.251,1.249,1.251,1.249,2.527,2.523c7.051,6.697,15.187,12.296,24.171,16.084
	c1.09,0.459,2.179,0.919,3.302,1.392c0.015-1.104,0.029-2.208,0.044-3.345c0.058-4.132,0.136-8.264,0.218-12.396
	c0.033-1.781,0.061-3.563,0.084-5.345c0.034-2.575,0.086-5.149,0.142-7.723c0.006-0.785,0.013-1.57,0.019-2.378
	c0.216-8.313,2.428-16.808,8.492-22.813c9.21-6.464,19.073-6.94,30-6c7.185,1.357,12.145,4.046,16.629,9.863
	c3.799,5.921,5.577,12.084,4.371,19.137c-1.5,2.562-1.5,2.562-4,4c-4.29,0.665-7.303,0.465-11-2c-0.844-2.277-0.844-2.277-1.5-4.938
	c-0.882-3.565-1.559-5.763-4.5-8.062c-5.481-1.827-11.665-1.905-17.062,0.188c-2.763,2.585-3.788,5.044-4.109,8.844
	c-0.06,2.478-0.053,4.947-0.024,7.426c0.004,1.354,0.004,1.354,0.009,2.736c0.011,2.873,0.036,5.746,0.062,8.619
	c0.01,1.952,0.019,3.905,0.027,5.857c0.022,4.777,0.057,9.553,0.098,14.33c2.819,0.355,5.639,0.698,8.461,1.035
	c0.786,0.1,1.572,0.2,2.383,0.303c21.963,2.578,45.185-5.701,62.324-19.231C217.202,223.557,231.947,195.829,237,164
	c0.131-0.82,0.263-1.64,0.398-2.484c4.261-33.396-4.479-68.326-24.52-95.379c-15.738-19.834-36.826-35.959-62.422-39.855
	C115.822,22.316,85.824,34.817,63,61z M26,282c-0.236,8.619-0.236,8.619,2,16c1.317,0.025,2.634,0.05,3.991,0.076
	c4.881,0.094,9.762,0.194,14.643,0.296c2.114,0.043,4.227,0.085,6.341,0.125c3.036,0.058,6.071,0.121,9.107,0.186
	c0.947,0.017,1.894,0.033,2.87,0.051c0.881,0.02,1.761,0.04,2.669,0.06c1.162,0.023,1.162,0.023,2.348,0.047C72,299,72,299,75,300
	c0.224,1.414,0.428,2.832,0.625,4.25c0.116,0.789,0.232,1.578,0.352,2.391c0.028,2.778-0.392,4.085-1.977,6.359
	c-3.656,2.502-7.554,2.346-11.828,2.414c-0.749,0.019-1.498,0.039-2.27,0.059c-2.384,0.06-4.768,0.106-7.152,0.152
	c-1.62,0.038-3.24,0.077-4.859,0.117c-3.963,0.096-7.927,0.18-11.891,0.258c7.411,15.144,21.457,24.352,36.867,30.062
	c7.844,2.48,15.523,3.088,23.701,3.099c1.402,0.007,1.402,0.007,2.831,0.015c3.076,0.015,6.153,0.021,9.229,0.027
	c1.586,0.004,1.586,0.004,3.204,0.009c5.599,0.015,11.198,0.024,16.796,0.029c5.75,0.005,11.501,0.029,17.251,0.058
	c4.45,0.019,8.9,0.024,13.35,0.025c2.118,0.003,4.236,0.011,6.354,0.024c20.634,0.12,38.67-2.128,55.415-15.348
	c0.784-0.619,1.568-1.237,2.375-1.875C235.542,321.931,243.058,307.515,246,292c0-3.3,0-6.6,0-10C173.4,282,100.8,282,26,282z
	 M110,367c-1.291,8.389-2.493,16.711-3.42,25.137c-0.127,1.135-0.254,2.27-0.385,3.44c-0.414,3.703-0.824,7.407-1.234,11.111
	c-0.288,2.593-0.577,5.185-0.866,7.778c-0.602,5.409-1.202,10.819-1.8,16.229c-0.691,6.245-1.386,12.49-2.083,18.734
	c-0.673,6.033-1.343,12.066-2.012,18.099c-0.284,2.558-0.569,5.116-0.854,7.674c-0.398,3.566-0.792,7.132-1.185,10.698
	c-0.118,1.056-0.237,2.111-0.359,3.199c-0.106,0.973-0.213,1.945-0.323,2.947c-0.093,0.841-0.187,1.683-0.283,2.549
	C94.995,497.055,95,499.53,95,502c27.06,0,54.12,0,82,0c-0.628-8.796-1.309-17.513-2.291-26.266
	c-0.125-1.137-0.251-2.274-0.38-3.445c-0.409-3.703-0.822-7.406-1.235-11.109c-0.288-2.594-0.575-5.187-0.863-7.781
	c-0.6-5.408-1.202-10.816-1.806-16.223c-0.697-6.245-1.39-12.49-2.081-18.736c-0.668-6.034-1.338-12.067-2.01-18.1
	c-0.285-2.559-0.569-5.118-0.852-7.677c-0.395-3.564-0.793-7.127-1.192-10.691c-0.116-1.058-0.233-2.115-0.353-3.205
	c-0.109-0.97-0.219-1.939-0.331-2.939c-0.14-1.261-0.14-1.261-0.284-2.548c-0.327-2.588-0.327-2.588-1.323-6.28
	C144.84,367,127.68,367,110,367z"/>
<path d="M316.793,7.853c0.814-0.004,1.628-0.007,2.467-0.011c2.744-0.011,5.487-0.015,8.231-0.019
	c1.961-0.006,3.922-0.013,5.883-0.02c5.339-0.017,10.678-0.028,16.017-0.036c3.334-0.005,6.668-0.011,10.001-0.018
	c10.426-0.019,20.851-0.033,31.277-0.042c12.044-0.01,24.088-0.036,36.132-0.077c9.303-0.03,18.606-0.045,27.908-0.048
	c5.559-0.002,11.118-0.011,16.677-0.036c5.23-0.023,10.46-0.028,15.69-0.017c1.92,0,3.839-0.006,5.759-0.02
	c2.621-0.018,5.241-0.011,7.863,0.003c0.759-0.011,1.519-0.022,2.301-0.033c5.145,0.062,8.029,1.294,12,4.521
	c4.667,5.298,5.149,8.531,5.147,15.438c0.004,0.884,0.007,1.767,0.011,2.678c0.011,2.979,0.015,5.957,0.019,8.936
	c0.006,2.128,0.013,4.257,0.02,6.385c0.017,5.796,0.028,11.591,0.036,17.387c0.005,3.619,0.011,7.237,0.017,10.856
	c0.019,11.315,0.033,22.63,0.042,33.946c0.01,13.074,0.036,26.147,0.077,39.221c0.03,10.097,0.045,20.194,0.048,30.291
	c0.002,6.034,0.011,12.068,0.036,18.103c0.023,5.677,0.028,11.353,0.017,17.03c0,2.084,0.006,4.168,0.02,6.252
	c0.018,2.845,0.011,5.688-0.003,8.533c0.011,0.826,0.022,1.651,0.033,2.501c-0.059,5.281-1.051,8.239-4.521,12.445
	c-5.106,4.498-8.138,5.149-14.793,5.147c-0.814,0.004-1.628,0.007-2.467,0.011c-2.744,0.011-5.487,0.015-8.231,0.019
	c-1.961,0.006-3.922,0.013-5.883,0.02c-5.339,0.017-10.678,0.028-16.017,0.036c-3.334,0.005-6.668,0.011-10.001,0.018
	c-10.426,0.019-20.851,0.033-31.277,0.042c-12.044,0.01-24.088,0.036-36.132,0.077c-9.303,0.03-18.606,0.045-27.908,0.048
	c-5.559,0.002-11.118,0.011-16.677,0.036c-5.23,0.023-10.46,0.028-15.69,0.017c-1.92,0-3.839,0.006-5.759,0.02
	c-2.621,0.018-5.241,0.011-7.863-0.003c-0.759,0.011-1.519,0.022-2.301,0.033c-5.145-0.062-8.029-1.294-12-4.521
	c-4.667-5.298-5.149-8.531-5.147-15.438c-0.004-0.884-0.007-1.767-0.011-2.678c-0.011-2.979-0.015-5.957-0.019-8.936
	c-0.006-2.128-0.013-4.257-0.02-6.385c-0.017-5.796-0.028-11.591-0.036-17.387c-0.005-3.619-0.011-7.237-0.018-10.856
	c-0.019-11.315-0.033-22.63-0.042-33.946c-0.01-13.074-0.036-26.147-0.077-39.221c-0.03-10.097-0.045-20.194-0.048-30.291
	c-0.002-6.034-0.011-12.068-0.036-18.103c-0.023-5.677-0.028-11.353-0.017-17.03c0.001-2.084-0.006-4.168-0.02-6.252
	c-0.018-2.845-0.011-5.688,0.003-8.533c-0.011-0.825-0.022-1.651-0.033-2.501C297.538,20.164,298.53,17.205,302,13
	C307.106,8.502,310.138,7.851,316.793,7.853z M316,26c0,50.16,0,100.32,0,152c27.72,0,55.44,0,84,0c0-50.16,0-100.32,0-152
	C372.28,26,344.56,26,316,26z M418,26c0,50.16,0,100.32,0,152c27.72,0,55.44,0,84,0c0-50.16,0-100.32,0-152
	C474.28,26,446.56,26,418,26z M316,196c0,10.89,0,21.78,0,33c61.38,0,122.76,0,186,0c0-10.89,0-21.78,0-33
	C440.62,196,379.24,196,316,196z"/>
<path d="M357.034,271.86c1.19-0.009,1.19-0.009,2.404-0.017c1.292-0.002,1.292-0.002,2.61-0.003c0.914-0.005,1.829-0.01,2.771-0.015
	c3.024-0.015,6.048-0.021,9.072-0.027c2.105-0.006,4.21-0.012,6.315-0.017c4.415-0.01,8.83-0.016,13.245-0.02
	c5.647-0.005,11.293-0.03,16.94-0.058c4.35-0.019,8.699-0.024,13.049-0.025c2.081-0.003,4.162-0.011,6.243-0.024
	c2.917-0.017,5.834-0.015,8.752-0.009c1.28-0.014,1.28-0.014,2.586-0.028c9.021,0.062,16.414,3.124,22.98,9.384
	c5.919,7.88,5.088,15.5,5,25c5.28,0,10.56,0,16,0c-0.082-1.526-0.165-3.052-0.25-4.625c0.021-3.639,0.304-5.503,1.75-8.938
	c2.912-2.84,4.558-3.395,8.531-3.617c2.925,0.267,4.722,1.342,6.969,3.18c1.382,2.765,1.095,5.046,1.062,8.125
	c-0.009,1.096-0.018,2.191-0.027,3.32c-0.017,1.265-0.017,1.265-0.035,2.555c0.736-0.035,1.472-0.07,2.23-0.105
	c9.87-0.274,9.87-0.274,13.77,3.105c1.745,3.489,1.555,7.193,1,11c-1.75,2.562-1.75,2.562-5,4c-4.024,0.309-7.974,0.231-12,0
	c0.087,1.212,0.087,1.212,0.176,2.449c0.366,8.67,0.366,8.67-2.176,12.801c-4.171,2.433-6.21,2.434-11,1.75
	c-2.969-2.207-3.829-3.486-5-7c-0.131-3.338-0.043-6.657,0-10c-5.28,0-10.56,0-16,0c0.009,1.225,0.018,2.449,0.027,3.711
	c0.081,11.55,0.141,23.1,0.18,34.65c0.021,5.938,0.049,11.876,0.095,17.813c0.044,5.732,0.067,11.463,0.078,17.195
	c0.007,2.185,0.022,4.371,0.043,6.556c0.029,3.064,0.033,6.128,0.031,9.192c0.014,0.901,0.029,1.801,0.044,2.729
	c-0.043,6.62-1.464,11.068-6.234,15.92c-5.844,3.749-10.951,3.837-17.764,3.546c-1.52-0.034-1.52-0.034-3.07-0.068
	c-2.478-0.058-4.953-0.14-7.43-0.244c0.035,0.869,0.07,1.738,0.105,2.633c0.278,11.855,0.278,11.855-3.105,16.367
	c-5.901,5.645-10.25,7.246-18.341,7.275c-0.721,0.005-1.442,0.01-2.185,0.016c-2.374,0.014-4.748,0.013-7.122,0.011
	c-1.658,0.004-3.315,0.008-4.973,0.013c-3.472,0.007-6.943,0.007-10.415,0.002c-4.437-0.006-8.874,0.011-13.312,0.034
	c-3.423,0.015-6.846,0.016-10.269,0.012c-1.635,0.001-3.271,0.006-4.906,0.016c-2.293,0.012-4.584,0.006-6.877-0.006
	c-1.302,0.001-2.603,0.001-3.945,0.002c-4.884-0.5-8.882-1.788-12.616-5.128c-0.467-0.597-0.933-1.194-1.414-1.809
	c-0.482-0.599-0.964-1.199-1.461-1.816c-2.165-3.014-2.288-4.936-2.284-8.607c-0.001-1.055-0.003-2.109-0.004-3.196
	c0.005-1.742,0.005-1.742,0.011-3.52c0-1.219,0-2.439,0-3.695c0.001-3.349,0.006-6.698,0.013-10.047
	c0.006-3.498,0.007-6.996,0.008-10.494c0.003-6.626,0.011-13.253,0.021-19.879c0.011-7.543,0.017-15.086,0.022-22.628
	c0.01-15.518,0.028-31.036,0.05-46.555c-5.28,0-10.56,0-16,0c0.062,1.547,0.124,3.094,0.188,4.688
	c0.006,4.301-0.398,6.88-3.188,10.312c-2,2-2,2-5.812,2.438c-3.198-0.122-4.3-0.503-7.188-2.188c-3.021-4.909-2.403-9.63-2-15.25
	c-0.808,0.058-1.616,0.116-2.449,0.176c-8.67,0.366-8.67,0.366-12.801-2.176c-2.433-4.171-2.434-6.21-1.75-11
	c1.87-2.431,3.281-3.641,6-5c1.874-0.07,3.75-0.084,5.625-0.062c1.504,0.014,1.504,0.014,3.039,0.027
	c0.771,0.012,1.542,0.023,2.336,0.035c-0.046-0.82-0.093-1.64-0.141-2.484c-0.054-1.616-0.054-1.616-0.109-3.266
	c-0.046-1.067-0.093-2.135-0.141-3.234C298,294,298,294,299.801,291.668c3.079-2.335,5.365-2.601,9.199-2.668
	c2.877,1.215,4.456,2.14,6.129,4.785c1.563,3.974,0.982,7.991,0.871,12.215c5.28,0,10.56,0,16,0
	c-0.082-2.124-0.165-4.249-0.25-6.438c0-6.49,0.861-11.047,4.25-16.562c0.557-0.908,1.114-1.815,1.688-2.75
	C342.999,275.082,349.594,271.892,357.034,271.86z M352,292c-2.33,3.495-2.247,4.851-2.241,8.979
	c-0.003,1.249-0.005,2.499-0.008,3.786c0.007,1.387,0.014,2.774,0.022,4.161c0.001,1.459,0,2.917-0.001,4.376
	c-0.001,3.963,0.011,7.925,0.025,11.888c0.012,4.14,0.014,8.28,0.016,12.42c0.006,7.841,0.023,15.682,0.043,23.523
	c0.027,10.595,0.037,21.189,0.049,31.784c0.019,16.695,0.059,33.389,0.095,50.083c22.11,0,44.22,0,67,0
	c0.33-50.49,0.66-100.98,1-153C383.838,286.078,383.838,286.078,352,292z M438.188,291.812c-2.387,2.387-3.148,3.227-3.285,6.57
	c0.012,0.905,0.023,1.81,0.035,2.742c0.021,1.609,0.041,3.217,0.062,4.875c5.28,0,10.56,0,16,0c0.65-7.153,0.65-7.153-1.625-13.625
	C445.116,289.909,442.469,289.053,438.188,291.812z M435,324c0,30.69,0,61.38,0,93c5.28,0,10.56,0,16,0c0-30.69,0-61.38,0-93
	C445.72,324,440.44,324,435,324z"/>
<path d="M165,50c3.748,2.082,4.795,3.295,6,7.438c0,4.774-1.739,7.132-4.847,10.659c-1.043,1.042-1.043,1.042-2.107,2.105
	c-1.201,1.207-1.201,1.207-2.426,2.439c-0.874,0.869-1.749,1.738-2.65,2.633c-1.386,1.389-1.386,1.389-2.799,2.805
	c-2.526,2.531-5.059,5.056-7.593,7.58c-2.652,2.643-5.298,5.291-7.945,7.938c-4.443,4.442-8.889,8.88-13.338,13.315
	c-5.147,5.131-10.289,10.268-15.427,15.407c-4.943,4.944-9.89,9.885-14.838,14.825c-2.106,2.103-4.212,4.207-6.317,6.311
	c-2.935,2.934-5.874,5.863-8.813,8.792c-0.876,0.877-1.753,1.754-2.656,2.657c-0.798,0.794-1.596,1.587-2.417,2.405
	c-1.042,1.04-1.042,1.04-2.106,2.1c-2.474,2.289-3.605,2.58-7.034,2.968C64,162,64,162,61.062,160
	c-2.12-3.084-2.925-5.144-2.671-8.914c0.743-2.547,1.81-3.829,3.599-5.783c0.637-0.697,1.273-1.394,1.93-2.112
	c3.607-3.8,7.275-7.534,10.981-11.238c0.863-0.866,1.725-1.732,2.614-2.624c2.343-2.351,4.688-4.699,7.034-7.046
	c1.468-1.469,2.936-2.938,4.403-4.408c5.124-5.134,10.251-10.265,15.381-15.393c4.774-4.774,9.543-9.553,14.31-14.335
	c4.104-4.117,8.211-8.229,12.322-12.339c2.45-2.45,4.899-4.902,7.344-7.357c2.721-2.732,5.449-5.456,8.178-8.179
	c0.807-0.812,1.614-1.625,2.445-2.462c1.116-1.11,1.116-1.11,2.255-2.243c0.644-0.644,1.287-1.288,1.95-1.952
	C156.911,50.344,160.006,49.389,165,50z"/>
<path d="M114,50c2.906,2.26,4.6,4.024,6,7.438c0,6.286-4.463,10.373-8.625,14.553c-0.744,0.731-1.488,1.463-2.254,2.217
	c-0.768,0.766-1.536,1.532-2.327,2.321c-1.618,1.611-3.239,3.219-4.864,4.823c-2.494,2.463-4.978,4.937-7.459,7.412
	c-1.574,1.565-3.149,3.13-4.725,4.693c-0.746,0.742-1.492,1.483-2.26,2.247c-1.036,1.022-1.036,1.022-2.094,2.064
	c-0.912,0.902-0.912,0.902-1.843,1.823c-2.958,2.69-5.633,2.754-9.576,2.682C72,102,72,102,69.562,100.438
	C67.481,97.191,67.068,94.848,67,91c2.394-5.274,6.796-9.084,10.844-13.109c0.766-0.767,1.531-1.535,2.32-2.326
	c1.615-1.616,3.232-3.23,4.852-4.841c2.483-2.472,4.955-4.955,7.426-7.439c1.571-1.57,3.143-3.139,4.715-4.707
	c0.741-0.745,1.481-1.489,2.245-2.257c0.691-0.685,1.382-1.369,2.093-2.074c0.606-0.604,1.212-1.209,1.837-1.832
	C106.566,49.672,109.93,49.512,114,50z"/>
<path d="M439,92.375c0.699-0.019,1.397-0.039,2.117-0.059c3.897,0.037,5.741,0.575,8.848,2.969
	c3.049,4.068,2.746,5.742,2.035,10.715c-1.87,2.431-3.281,3.641-6,5c-2.267,0.149-4.54,0.221-6.812,0.25
	c-1.835,0.039-1.835,0.039-3.707,0.078c-3.706-0.349-5.545-1.092-8.48-3.328c-1.579-3.158-1.819-6.607-1-10
	C429.71,93.008,433.041,92.21,439,92.375z"/>
<path d="M379,92.375c0.699-0.019,1.397-0.039,2.117-0.059c3.898,0.037,5.743,0.576,8.852,2.969C393,99.337,392.629,101.049,392,106
	c-1.743,3.236-2.472,3.824-6,5c-2.288,0.171-4.581,0.266-6.875,0.312c-1.214,0.037-2.429,0.075-3.68,0.113
	c-4.03-0.498-5.599-1.596-8.445-4.426c-1.569-3.139-1.352-5.539-1-9C369.738,93.028,373.034,92.21,379,92.375z"/>
<path d="M106,297.438c0.699-0.011,1.397-0.022,2.117-0.033c3.559,0.05,5.773,0.531,8.848,2.35c2.268,2.503,2.694,3.427,2.598,6.746
	c-0.181,3.241-0.419,4.302-2.375,7c-3.656,2.507-6.733,2.685-11.062,2.75c-1.543,0.039-1.543,0.039-3.117,0.078
	c-3.447-0.376-5.244-1.267-8.008-3.328c-2.5-3.75-2.536-5.559-2-10C96.753,298.017,100.021,297.233,106,297.438z"/>
</svg>
